<svg width="17" height="17" viewBox="0 0 17 17" fill="none" xmlns="http://www.w3.org/2000/svg">
	<path d="M15.51 16.2525C15.9317 16.6742 16.5825 16.0233 16.1608 15.6108L12.7233 12.1642C13.9291 10.83 14.5957 9.09502 14.5933 7.29667C14.5933 3.2725 11.3208 0 7.29667 0C3.2725 0 0 3.2725 0 7.29667C0 11.3208 3.2725 14.5933 7.29667 14.5933C9.11167 14.5933 10.7892 13.9242 12.0725 12.815L15.51 16.2525ZM0.91575 7.29667C0.91575 3.77667 3.78492 0.916667 7.29575 0.916667C10.8157 0.916667 13.6757 3.77667 13.6757 7.29667C13.6757 10.8167 10.8157 13.6767 7.29575 13.6767C3.78492 13.6767 0.91575 10.8167 0.91575 7.29667Z" fill="#000000" />
</svg>
