<svg width="40" height="39" viewBox="0 0 40 39" fill="none" xmlns="http://www.w3.org/2000/svg">
<g clip-path="url(#clip0_568_14827)">
<path d="M17.2224 2.9747V9.48256C17.2224 10.3652 16.4886 11.0803 15.5833 11.0803C12.3536 11.0803 10.5967 14.3101 10.3532 20.6847L15.5833 20.6847C16.4886 20.6847 17.2224 21.4005 17.2224 22.2828V36.0238C17.2224 36.9059 16.4886 37.6212 15.5833 37.6212H1.63872C0.733131 37.6212 0 36.9054 0 36.0238L0 22.2828C0 19.2269 0.315574 16.4227 0.93767 13.947C1.57569 11.4086 2.55507 9.18906 3.84774 7.34999C5.17787 5.45998 6.84168 3.97686 8.79333 2.94364C10.7582 1.90417 13.043 1.37695 15.5839 1.37695C16.4886 1.37695 17.2224 2.09209 17.2224 2.9747ZM38.3608 11.0804C39.2656 11.0804 40 10.3646 40 9.48267V2.97481C40 2.0922 39.2657 1.37706 38.3608 1.37706C35.821 1.37706 33.5358 1.9044 31.5716 2.94376C29.6196 3.97697 27.9549 5.46009 26.6245 7.35011C25.3323 9.18918 24.353 11.4088 23.7148 13.9478C23.0931 16.4242 22.7775 19.2285 22.7775 22.2829V36.0239C22.7775 36.9061 23.5115 37.6213 24.4165 37.6213L38.3607 37.6213C39.2655 37.6213 39.9992 36.9055 39.9992 36.0239L39.9992 22.2828C39.9992 21.4006 39.2656 20.6847 38.3607 20.6847H33.2052C33.445 14.3102 35.1762 11.0804 38.3608 11.0804Z" fill="#194894" fill-opacity="0.28"/>
</g>
<defs>
<clipPath id="clip0_568_14827">
<rect width="40" height="39" fill="white"/>
</clipPath>
</defs>
</svg>
